<svg width="167" height="57" viewBox="0 0 167 57" fill="none" xmlns="http://www.w3.org/2000/svg">
<path fill-rule="evenodd" clip-rule="evenodd" d="M7 0C3.13401 0 0 3.13401 0 7V33C0 36.866 3.13401 40 7 40H108.879L129.889 56.9907L129.985 40H160C163.866 40 167 36.866 167 33V7C167 3.13401 163.866 0 160 0H7Z" fill="#F2F2F3"/>
<path d="M21.2493 11.2727H24.255V23.0341C24.2495 24.1122 24.0208 25.0406 23.5689 25.8192C23.117 26.5924 22.4853 27.1887 21.674 27.608C20.8681 28.0218 19.9289 28.2287 18.8562 28.2287C17.8761 28.2287 16.994 28.0545 16.2099 27.706C15.4312 27.352 14.8132 26.8293 14.3558 26.1378C13.8984 25.4463 13.6697 24.5859 13.6697 23.5568H16.6836C16.689 24.0088 16.7871 24.3981 16.9776 24.7248C17.1737 25.0515 17.4432 25.302 17.7862 25.4762C18.1293 25.6504 18.524 25.7376 18.9705 25.7376C19.4551 25.7376 19.8662 25.6368 20.2038 25.4354C20.5414 25.2285 20.7973 24.9235 20.9716 24.5206C21.1513 24.1177 21.2438 23.6222 21.2493 23.0341V11.2727ZM29.6905 28H26.4561L32.345 11.2727H36.0858L41.9828 28H38.7484L34.2807 14.7031H34.15L29.6905 28ZM29.7967 21.4414H38.6177V23.8754H29.7967V21.4414ZM44.5147 11.2727L48.8681 24.4389H49.0396L53.3848 11.2727H56.7172L50.8201 28H47.0794L41.1905 11.2727H44.5147ZM59.1143 28H55.88L61.7688 11.2727H65.5096L71.4066 28H68.1722L63.7045 14.7031H63.5739L59.1143 28ZM59.2205 21.4414H68.0415V23.8754H59.2205V21.4414ZM82.4308 15.8711C82.3546 15.1578 82.0334 14.6024 81.4671 14.2049C80.9062 13.8074 80.1766 13.6087 79.2781 13.6087C78.6465 13.6087 78.1047 13.704 77.6528 13.8945C77.2008 14.0851 76.8551 14.3437 76.6155 14.6705C76.3759 14.9972 76.2534 15.3701 76.248 15.7894C76.248 16.1379 76.3269 16.4401 76.4848 16.696C76.6482 16.9519 76.8687 17.1697 77.1464 17.3494C77.4241 17.5237 77.7317 17.6707 78.0693 17.7905C78.4069 17.9103 78.7472 18.011 79.0903 18.0927L80.6585 18.4847C81.2901 18.6317 81.8972 18.8305 82.4798 19.081C83.0679 19.3314 83.5934 19.6473 84.0562 20.0284C84.5245 20.4096 84.8947 20.8697 85.167 21.4087C85.4392 21.9478 85.5754 22.5794 85.5754 23.3036C85.5754 24.2837 85.3249 25.1468 84.824 25.8928C84.323 26.6333 83.5988 27.2132 82.6514 27.6325C81.7094 28.0463 80.5686 28.2532 79.2291 28.2532C77.9278 28.2532 76.7979 28.0517 75.8396 27.6488C74.8867 27.2459 74.1407 26.6578 73.6017 25.8846C73.068 25.1114 72.7794 24.1694 72.7359 23.0586H75.7171C75.7606 23.6412 75.9403 24.1258 76.2561 24.5124C76.5719 24.899 76.983 25.1876 77.4894 25.3782C78.0013 25.5688 78.573 25.6641 79.2046 25.6641C79.8635 25.6641 80.4407 25.5661 80.9362 25.37C81.4371 25.1686 81.8292 24.8909 82.1123 24.5369C82.3954 24.1776 82.5397 23.7583 82.5452 23.2791C82.5397 22.8435 82.4118 22.4841 82.1613 22.201C81.9108 21.9124 81.5596 21.6728 81.1077 21.4822C80.6612 21.2862 80.1385 21.112 79.5395 20.9595L77.6365 20.4695C76.2588 20.1155 75.1698 19.5792 74.3694 18.8604C73.5744 18.1362 73.1769 17.1752 73.1769 15.9773C73.1769 14.9917 73.4437 14.1287 73.9774 13.3881C74.5164 12.6476 75.2488 12.0732 76.1744 11.6648C77.1001 11.2509 78.1483 11.044 79.319 11.044C80.506 11.044 81.546 11.2509 82.439 11.6648C83.3374 12.0732 84.0426 12.6422 84.5544 13.3718C85.0663 14.096 85.3303 14.9291 85.3467 15.8711H82.4308ZM102.595 16.9165H99.54C99.4528 16.4156 99.2922 15.9718 99.0581 15.5852C98.8239 15.1932 98.5326 14.861 98.1841 14.5888C97.8356 14.3165 97.4382 14.1123 96.9917 13.9762C96.5506 13.8346 96.0742 13.7638 95.5623 13.7638C94.653 13.7638 93.8471 13.9925 93.1447 14.4499C92.4423 14.9019 91.8923 15.5662 91.4949 16.4428C91.0974 17.314 90.8986 18.3786 90.8986 19.6364C90.8986 20.916 91.0974 21.9941 91.4949 22.8707C91.8978 23.742 92.4477 24.4008 93.1447 24.8473C93.8471 25.2884 94.6503 25.5089 95.5542 25.5089C96.0551 25.5089 96.5234 25.4435 96.959 25.3129C97.4 25.1767 97.7948 24.978 98.1433 24.7166C98.4972 24.4553 98.794 24.134 99.0336 23.7528C99.2786 23.3717 99.4474 22.9361 99.54 22.446L102.595 22.4624C102.48 23.2573 102.233 24.0033 101.851 24.7003C101.476 25.3973 100.983 26.0125 100.373 26.5462C99.7632 27.0743 99.0499 27.4882 98.2331 27.7876C97.4164 28.0817 96.5098 28.2287 95.5133 28.2287C94.0431 28.2287 92.7309 27.8884 91.5765 27.2077C90.4222 26.5271 89.5128 25.5443 88.8485 24.2592C88.1842 22.9742 87.8521 21.4332 87.8521 19.6364C87.8521 17.834 88.187 16.2931 88.8567 15.0135C89.5265 13.7285 90.4385 12.7456 91.5929 12.065C92.7472 11.3844 94.054 11.044 95.5133 11.044C96.4444 11.044 97.3102 11.1747 98.1106 11.4361C98.911 11.6974 99.6243 12.0813 100.251 12.5877C100.877 13.0887 101.391 13.704 101.794 14.4336C102.203 15.1578 102.469 15.9854 102.595 16.9165ZM105.37 28V11.2727H111.642C112.927 11.2727 114.005 11.496 114.877 11.9425C115.753 12.389 116.415 13.0152 116.861 13.821C117.313 14.6214 117.539 15.5553 117.539 16.6225C117.539 17.6952 117.311 18.6263 116.853 19.4158C116.401 20.1999 115.734 20.8071 114.852 21.2372C113.97 21.6619 112.887 21.8743 111.601 21.8743H107.134V19.3587H111.193C111.945 19.3587 112.56 19.2552 113.039 19.0483C113.518 18.8359 113.872 18.5283 114.101 18.1254C114.335 17.717 114.452 17.216 114.452 16.6225C114.452 16.029 114.335 15.5226 114.101 15.1033C113.867 14.6786 113.51 14.3574 113.031 14.1396C112.552 13.9163 111.934 13.8047 111.177 13.8047H108.4V28H105.37ZM114.011 20.4205L118.152 28H114.771L110.703 20.4205H114.011ZM123.359 11.2727V28H120.329V11.2727H123.359ZM126.64 28V11.2727H132.913C134.198 11.2727 135.276 11.5123 136.147 11.9915C137.024 12.4706 137.685 13.1295 138.132 13.968C138.584 14.8011 138.81 15.7486 138.81 16.8104C138.81 17.883 138.584 18.8359 138.132 19.669C137.68 20.5021 137.013 21.1583 136.131 21.6374C135.249 22.1112 134.162 22.348 132.872 22.348H128.715V19.8569H132.464C133.215 19.8569 133.83 19.7262 134.309 19.4648C134.789 19.2035 135.143 18.8441 135.371 18.3867C135.605 17.9293 135.722 17.4039 135.722 16.8104C135.722 16.2169 135.605 15.6941 135.371 15.2422C135.143 14.7902 134.786 14.439 134.301 14.1886C133.822 13.9326 133.204 13.8047 132.447 13.8047H129.67V28H126.64ZM140.707 13.8129V11.2727H154.053V13.8129H148.883V28H145.877V13.8129H140.707Z" fill="#51BEFE"/>
</svg>
