<svg width="92" height="57" viewBox="0 0 92 57" fill="none" xmlns="http://www.w3.org/2000/svg">
<path fill-rule="evenodd" clip-rule="evenodd" d="M7 0C3.13401 0 0 3.13401 0 7V33C0 36.866 3.13401 40 7 40H20.9812L20.9812 56.5948L41.7411 40H85C88.866 40 92 36.866 92 33V7C92 3.13401 88.866 0 85 0H7Z" fill="#F2F2F3"/>
<path d="M37.9677 16.9165H34.913C34.8259 16.4156 34.6652 15.9718 34.4311 15.5852C34.197 15.1932 33.9057 14.861 33.5572 14.5888C33.2087 14.3165 32.8112 14.1123 32.3647 13.9762C31.9237 13.8346 31.4472 13.7638 30.9354 13.7638C30.026 13.7638 29.2202 13.9925 28.5178 14.4499C27.8153 14.9019 27.2654 15.5662 26.8679 16.4428C26.4704 17.314 26.2717 18.3786 26.2717 19.6364C26.2717 20.916 26.4704 21.9941 26.8679 22.8707C27.2708 23.742 27.8208 24.4008 28.5178 24.8473C29.2202 25.2884 30.0233 25.5089 30.9272 25.5089C31.4281 25.5089 31.8964 25.4435 32.332 25.3129C32.7731 25.1767 33.1679 24.978 33.5163 24.7166C33.8703 24.4553 34.167 24.134 34.4066 23.7528C34.6516 23.3717 34.8204 22.9361 34.913 22.446L37.9677 22.4624C37.8533 23.2573 37.6056 24.0033 37.2244 24.7003C36.8487 25.3973 36.3559 26.0125 35.7461 26.5462C35.1362 27.0743 34.4229 27.4882 33.6062 27.7876C32.7894 28.0817 31.8828 28.2287 30.8864 28.2287C29.4162 28.2287 28.1039 27.8884 26.9496 27.2077C25.7952 26.5271 24.8859 25.5443 24.2216 24.2592C23.5573 22.9742 23.2251 21.4332 23.2251 19.6364C23.2251 17.834 23.56 16.2931 24.2298 15.0135C24.8995 13.7285 25.8116 12.7456 26.9659 12.065C28.1203 11.3844 29.4271 11.044 30.8864 11.044C31.8175 11.044 32.6832 11.1747 33.4837 11.4361C34.2841 11.6974 34.9974 12.0813 35.6236 12.5877C36.2498 13.0887 36.7643 13.704 37.1673 14.4336C37.5756 15.1578 37.8424 15.9854 37.9677 16.9165ZM49.8332 15.8711C49.757 15.1578 49.4357 14.6024 48.8694 14.2049C48.3086 13.8074 47.5789 13.6087 46.6805 13.6087C46.0489 13.6087 45.5071 13.704 45.0551 13.8945C44.6032 14.0851 44.2574 14.3437 44.0178 14.6705C43.7783 14.9972 43.6557 15.3701 43.6503 15.7894C43.6503 16.1379 43.7293 16.4401 43.8872 16.696C44.0505 16.9519 44.271 17.1697 44.5487 17.3494C44.8264 17.5237 45.1341 17.6707 45.4717 17.7905C45.8093 17.9103 46.1496 18.011 46.4926 18.0927L48.0608 18.4847C48.6924 18.6317 49.2996 18.8305 49.8822 19.081C50.4703 19.3314 50.9957 19.6473 51.4585 20.0284C51.9268 20.4096 52.2971 20.8697 52.5693 21.4087C52.8416 21.9478 52.9777 22.5794 52.9777 23.3036C52.9777 24.2837 52.7272 25.1468 52.2263 25.8928C51.7253 26.6333 51.0012 27.2132 50.0537 27.6325C49.1117 28.0463 47.971 28.2532 46.6315 28.2532C45.3301 28.2532 44.2003 28.0517 43.2419 27.6488C42.289 27.2459 41.5431 26.6578 41.004 25.8846C40.4704 25.1114 40.1818 24.1694 40.1382 23.0586H43.1194C43.163 23.6412 43.3427 24.1258 43.6585 24.5124C43.9743 24.899 44.3854 25.1876 44.8918 25.3782C45.4036 25.5688 45.9753 25.6641 46.607 25.6641C47.2658 25.6641 47.843 25.5661 48.3385 25.37C48.8395 25.1686 49.2315 24.8909 49.5146 24.5369C49.7978 24.1776 49.9421 23.7583 49.9475 23.2791C49.9421 22.8435 49.8141 22.4841 49.5637 22.201C49.3132 21.9124 48.962 21.6728 48.51 21.4822C48.0635 21.2862 47.5408 21.112 46.9419 20.9595L45.0388 20.4695C43.6612 20.1155 42.5722 19.5792 41.7718 18.8604C40.9768 18.1362 40.5793 17.1752 40.5793 15.9773C40.5793 14.9917 40.8461 14.1287 41.3797 13.3881C41.9188 12.6476 42.6511 12.0732 43.5768 11.6648C44.5025 11.2509 45.5506 11.044 46.7213 11.044C47.9084 11.044 48.9484 11.2509 49.8414 11.6648C50.7398 12.0732 51.4449 12.6422 51.9568 13.3718C52.4686 14.096 52.7327 14.9291 52.749 15.8711H49.8332ZM64.7697 15.8711C64.6935 15.1578 64.3722 14.6024 63.8059 14.2049C63.2451 13.8074 62.5154 13.6087 61.617 13.6087C60.9854 13.6087 60.4436 13.704 59.9917 13.8945C59.5397 14.0851 59.194 14.3437 58.9544 14.6705C58.7148 14.9972 58.5923 15.3701 58.5868 15.7894C58.5868 16.1379 58.6658 16.4401 58.8237 16.696C58.987 16.9519 59.2076 17.1697 59.4853 17.3494C59.763 17.5237 60.0706 17.6707 60.4082 17.7905C60.7458 17.9103 61.0861 18.011 61.4292 18.0927L62.9973 18.4847C63.629 18.6317 64.2361 18.8305 64.8187 19.081C65.4068 19.3314 65.9322 19.6473 66.3951 20.0284C66.8633 20.4096 67.2336 20.8697 67.5059 21.4087C67.7781 21.9478 67.9142 22.5794 67.9142 23.3036C67.9142 24.2837 67.6638 25.1468 67.1628 25.8928C66.6619 26.6333 65.9377 27.2132 64.9902 27.6325C64.0482 28.0463 62.9075 28.2532 61.568 28.2532C60.2666 28.2532 59.1368 28.0517 58.1784 27.6488C57.2256 27.2459 56.4796 26.6578 55.9405 25.8846C55.4069 25.1114 55.1183 24.1694 55.0748 23.0586H58.0559C58.0995 23.6412 58.2792 24.1258 58.595 24.5124C58.9108 24.899 59.3219 25.1876 59.8283 25.3782C60.3401 25.5688 60.9119 25.6641 61.5435 25.6641C62.2024 25.6641 62.7795 25.5661 63.275 25.37C63.776 25.1686 64.168 24.8909 64.4512 24.5369C64.7343 24.1776 64.8786 23.7583 64.8841 23.2791C64.8786 22.8435 64.7507 22.4841 64.5002 22.201C64.2497 21.9124 63.8985 21.6728 63.4466 21.4822C63.0001 21.2862 62.4773 21.112 61.8784 20.9595L59.9753 20.4695C58.5977 20.1155 57.5087 19.5792 56.7083 18.8604C55.9133 18.1362 55.5158 17.1752 55.5158 15.9773C55.5158 14.9917 55.7826 14.1287 56.3162 13.3881C56.8553 12.6476 57.5877 12.0732 58.5133 11.6648C59.439 11.2509 60.4872 11.044 61.6578 11.044C62.8449 11.044 63.8849 11.2509 64.7779 11.6648C65.6763 12.0732 66.3815 12.6422 66.8933 13.3718C67.4051 14.096 67.6692 14.9291 67.6855 15.8711H64.7697Z" fill="#479DD0"/>
</svg>
